<svg height="512pt" viewBox="-63 0 512 512" width="512pt" xmlns="http://www.w3.org/2000/svg"><path d="m151.847656 461.882812c-.820312 0-1.65625-.132812-2.476562-.414062l-117.714844-40.449219c-3.972656-1.367187-6.089844-5.699219-4.722656-9.671875 1.367187-3.976562 5.699218-6.085937 9.671875-4.726562l117.714843 40.453125c3.976563 1.363281 6.089844 5.695312 4.722657 9.667969-1.082031 3.15625-4.035157 5.140624-7.195313 5.140624zm0 0" fill="#6a7193"/><path d="m23.875 461.882812c-3.160156 0-6.113281-1.984374-7.199219-5.140624-1.363281-3.972657.75-8.304688 4.726563-9.671876l117.714844-40.449218c3.976562-1.367188 8.304687.75 9.671874 4.722656 1.367188 3.976562-.75 8.308594-4.722656 9.675781l-117.71875 40.449219c-.820312.28125-1.652344.414062-2.472656.414062zm0 0" fill="#6a7193"/><path d="m164.539062 512c-3.402343 0-6.5-2.296875-7.375-5.742188l-32.207031-127.105468c-1.03125-4.074219 1.433594-8.214844 5.507813-9.246094 4.066406-1.027344 8.214844 1.433594 9.25 5.507812l32.207031 127.101563c1.03125 4.074219-1.433594 8.214844-5.507813 9.25-.628906.160156-1.257812.234375-1.875.234375zm0 0" fill="#8cbafa"/><path d="m11.1875 512c-.617188 0-1.246094-.074219-1.875-.234375-4.074219-1.035156-6.539062-5.171875-5.507812-9.25l32.207031-127.101563c1.035156-4.074218 5.175781-6.539062 9.25-5.507812s6.539062 5.171875 5.507812 9.246094l-32.207031 127.105468c-.875 3.445313-3.972656 5.742188-7.375 5.742188zm0 0" fill="#8cbafa"/><path d="m150.390625 377.285156h-125.054687c-13.992188 0-25.335938-11.34375-25.335938-25.335937 0-13.992188 11.34375-25.335938 25.335938-25.335938h125.054687c13.992187 0 25.335937 11.34375 25.335937 25.335938 0 13.992187-11.34375 25.335937-25.335937 25.335937zm0 0" fill="#ce675d"/><path d="m150.390625 326.613281h-27.285156c13.992187 0 25.335937 11.34375 25.335937 25.335938 0 13.992187-11.34375 25.335937-25.335937 25.335937h27.285156c13.992187 0 25.335937-11.34375 25.335937-25.335937 0-13.992188-11.34375-25.335938-25.335937-25.335938zm0 0" fill="#aa4b44"/><path d="m256.0625 290.09375h-218.511719c-4.484375 0-8.121093-3.632812-8.121093-8.117188v-273.859374c0-4.480469 3.636718-8.117188 8.121093-8.117188h218.511719c4.484375 0 8.121094 3.636719 8.121094 8.117188v273.859374c-.003906 4.484376-3.636719 8.117188-8.121094 8.117188zm0 0" fill="#6a7193"/><path d="m241.855469 22.328125v245.4375h-190.097657v-245.4375zm0 0" fill="#e9e9ea"/><path d="m241.855469 172.695312c-21.984375-1.632812-45.136719-.140624-60.417969 11.976563-12.648438 10.03125-17.949219 25.976563-28.074219 38.09375-11.523437 13.792969-28.875 17.964844-46.308593 17.367187-16.585938-.566406-33.660157-4.398437-49.992188.230469-1.800781.511719-3.574219 1.121094-5.304688 1.828125v25.578125h190.097657zm0 0" fill="#8cbafa"/><path d="m311.425781 263.683594c-1.867187-1.691406-3.824219-3.339844-5.859375-5.003906-7.363281-6.03125-14.910156-12.917969-17.289062-22.261719-1.859375-7.316407-.261719-15.199219-2.128906-22.511719-1.710938-6.707031-6.316407-12.449219-12.066407-16.105469-8.40625-5.347656-19.578125-6.609375-28.933593-3.347656-10.824219 3.773437-18.421876 14.863281-15.660157 26.777344.257813 1.105469.601563 2.1875 1.03125 3.234375 2.902344 7.050781 9.332031 12.046875 12.433594 19.007812 4.949219 11.097656-1.683594 20.886719-3.746094 31.691406-1.5625 8.171876.113281 16.769532 4.292969 23.796876 6.796875 11.433593 16.652344 17.398437 18.222656 31.886718.707032 6.492188.386719 13.082032 1.28125 19.550782 2.207032 15.988281 12.148438 30.78125 26 37.617187 27.960938 13.796875 36.75-42 41.242188-68.796875 1.960937-11.671875.523437-24.136719-3.839844-35.089844-3.402344-8.539062-8.652344-14.707031-14.980469-20.445312zm0 0" fill="#c9ea6e"/><path d="m293.644531 322.105469c-3.074219 0-5.972656-1.878907-7.121093-4.929688-6.894532-18.285156-14.480469-36.574219-22.542969-54.355469-1.738281-3.828124-.042969-8.339843 3.785156-10.074218 3.832031-1.738282 8.339844-.039063 10.078125 3.789062 8.199219 18.082032 15.910156 36.675782 22.921875 55.269532 1.484375 3.933593-.5 8.324218-4.433594 9.808593-.886719.332031-1.792969.492188-2.6875.492188zm0 0" fill="#7fab38"/><path d="m315.980469 402.996094c12.910156-4.320313 21.820312-18.265625 22.214843-31.929688.289063-10.007812-3.519531-20.007812-1.117187-29.964844 3.921875-16.246093 21.414063-11.929687 29.722656-23.160156 5.171875-6.992187 2.640625-16.703125 1.808594-24.632812-.640625-6.0625-.117187-11.652344 3.050781-16.894532 3.332032-5.507812 8.417969-9.710937 11.570313-15.367187 4.929687-8.851563 3.859375-20.785156-2.566407-28.574219-7.558593-9.167968-20.050781-14.371094-31.71875-13.011718-11.664062 1.359374-22.515624 8.675781-28.324218 19.09375-5.683594 10.203124-7.222656 20.785156-17.699219 27.628906-5.175781 3.378906-11.175781 5.21875-16.527344 8.296875-5.355469 3.078125-10.328125 7.976562-10.984375 14.210937-1.121094 10.613282 10.394532 19.335938 9.460938 29.964844-.597656 6.828125-6.101563 11.921875-10.082032 17.441406-7.175781 9.957032-9.867187 23.148438-7.175781 35.203125 2.691407 12.050781 10.714844 22.753907 21.410157 28.550781 7.40625 4.019532 16.160156 5.710938 24.355468 3.871094.882813-.199218 1.75-.441406 2.601563-.726562zm0 0" fill="#aed559"/><path d="m380.664062 232.472656c-5.535156-6.714844-13.714843-11.300781-22.277343-12.742187 1.546875 1.320312 2.976562 2.765625 4.265625 4.328125 6.425781 7.789062 7.496094 19.726562 2.5625 28.574218-3.152344 5.65625-8.238282 9.863282-11.566406 15.367188-3.171876 5.242188-3.691407 10.832031-3.054688 16.898438.835938 7.929687 3.363281 17.636718-1.808594 24.628906-8.304687 11.230468-25.796875 6.914062-29.71875 23.160156-2.40625 9.957031 1.402344 19.957031 1.113282 29.964844-.394532 13.664062-9.300782 27.609375-22.210938 31.929687-.851562.285157-1.722656.527344-2.605469.726563-4.199219.941406-8.542969.957031-12.777343.207031 2.007812 1.644531 4.160156 3.101563 6.4375 4.335937 7.40625 4.015626 16.160156 5.707032 24.355468 3.871094.882813-.199218 1.75-.441406 2.601563-.726562 12.910156-4.320313 21.820312-18.265625 22.214843-31.929688.289063-10.007812-3.519531-20.007812-1.117187-29.964844 3.925781-16.25 21.414063-11.933593 29.722656-23.160156 5.171875-6.996094 2.640625-16.703125 1.808594-24.632812-.640625-6.0625-.117187-11.65625 3.050781-16.894532 3.332032-5.507812 8.417969-9.710937 11.570313-15.367187 4.929687-8.851563 3.859375-20.785156-2.566407-28.574219zm0 0" fill="#7fab38"/><path d="m305.851562 397.785156c-3.71875 0-6.96875-2.726562-7.523437-6.511718-7.023437-48.128907 8.4375-98.242188 41.359375-134.046876 2.84375-3.09375 7.660156-3.296874 10.753906-.449218 3.09375 2.84375 3.296875 7.660156.453125 10.753906-29.851562 32.464844-43.871093 77.902344-37.503906 121.542969.609375 4.160156-2.273437 8.023437-6.429687 8.628906-.375.058594-.746094.082031-1.109376.082031zm0 0" fill="#7fab38"/><path d="m330.3125 504.386719h-62.207031c-6.851563 0-12.648438-5.066407-13.566407-11.855469l-13.371093-98.675781c-.824219-6.109375 3.921875-11.542969 10.085937-11.542969h95.914063c6.160156 0 10.910156 5.433594 10.082031 11.542969l-13.367188 98.675781c-.921874 6.789062-6.71875 11.855469-13.570312 11.855469zm0 0" fill="#f9aa4b"/><path d="m347.167969 382.3125h-26.238281c6.160156 0 10.910156 5.433594 10.082031 11.542969l-13.371094 98.675781c-.917969 6.789062-6.714844 11.855469-13.566406 11.855469h26.238281c6.851562 0 12.648438-5.066407 13.570312-11.855469l13.367188-98.675781c.828125-6.109375-3.921875-11.542969-10.082031-11.542969zm0 0" fill="#c1762b"/><path d="m129.222656 70.441406c0 12.519532-10.148437 22.664063-22.667968 22.664063-12.515626 0-22.664063-10.144531-22.664063-22.664063 0-12.515625 10.148437-22.664062 22.664063-22.664062 12.519531 0 22.667968 10.148437 22.667968 22.664062zm0 0" fill="#ffcd34"/></svg>