<svg id="Capa_1" enable-background="new 0 0 512 512" height="512" viewBox="0 0 512 512" width="512" xmlns="http://www.w3.org/2000/svg"><g><g><g><path d="m107.992 49.58c0-10.83 8.81-19.64 19.64-19.64l9.329-14.788-9.329-15.152c-27.339 0-49.58 22.241-49.58 49.58 0 22.124 14.564 40.909 34.61 47.271v29.464h14.97l6.913-29.722-6.913-27.373c-10.83 0-19.64-8.81-19.64-19.64z" fill="#4f5860"/><g fill="#3c454e"><path d="m127.632 69.22h14.97v57.096h-14.97z"/><path d="m147.271 49.58h29.94c0-27.339-22.241-49.58-49.58-49.58v29.94c10.83 0 19.64 8.811 19.64 19.64z"/></g></g><g><path d="m86.685 160.021c0 22.578 18.369 40.947 40.947 40.947l14.97-39.125-14.97-42.768c-22.578 0-40.947 18.368-40.947 40.946z" fill="#fff0a5"/><path d="m127.632 119.075v81.893c22.578 0 40.947-18.369 40.947-40.947-.001-22.578-18.369-40.946-40.947-40.946z" fill="#fedb7c"/></g><g><path d="m60.065 293.216c-26.338 46.925-43.169 86.869-43.169 108.049 0 61.059 49.676 110.735 110.736 110.735l23.829-64.51-23.829-138.605c-36.342-.599-72.265-5.91-67.567-15.669z" fill="#c7f2fe"/><path d="m197.515 295.803c4.468 9.423-32.923 13.689-69.883 13.081v203.116c61.059 0 110.735-49.676 110.735-110.735 0-21.165-15.21-59.282-40.852-105.462z" fill="#91e5fe"/></g><g><path d="m84.117 252.651c-8.65 13.894-16.719 27.5-24.052 40.566-9.476 19.685-16.711 37.906-16.711 50.747 0 46.663 37.684 84.514 84.277 84.808l20.473-83.989-20.473-92.132z" fill="#748bfc"/><path d="m197.515 295.803c-7.635-13.75-16.184-28.206-25.545-43.153h-44.339v176.121c.182.001.362.014.545.014 46.846 0 84.822-37.976 84.822-84.822 0-12.275-6.621-29.472-15.483-48.16z" fill="#5d60c9"/></g><g><path d="m77.792 240.703c0 27.482 22.358 49.84 49.84 49.84l13.438-47.188-13.438-52.491c-27.482 0-49.84 22.358-49.84 49.839z" fill="#f69"/><path d="m127.632 190.864v99.679c27.482 0 49.839-22.358 49.839-49.84 0-27.481-22.358-49.839-49.839-49.839z" fill="#f37"/></g></g><g><g><path d="m364.729 49.58c0-10.83 8.81-19.64 19.64-19.64l9.329-14.788-9.329-15.152c-27.339 0-49.58 22.241-49.58 49.58 0 22.124 14.564 40.909 34.61 47.271v29.464h14.97l6.913-29.722-6.913-27.373c-10.83 0-19.64-8.81-19.64-19.64z" fill="#4f5860"/><g fill="#3c454e"><path d="m384.369 69.22h14.97v57.096h-14.97z"/><path d="m404.009 49.58h29.94c0-27.339-22.241-49.58-49.58-49.58v29.94c10.83 0 19.64 8.811 19.64 19.64z"/></g></g><g><path d="m343.422 160.021c0 22.578 18.369 40.947 40.947 40.947l14.97-39.125-14.97-42.768c-22.578 0-40.947 18.368-40.947 40.946z" fill="#fff0a5"/><path d="m384.369 119.075v81.893c22.578 0 40.947-18.369 40.947-40.947s-18.369-40.946-40.947-40.946z" fill="#fedb7c"/></g><g><path d="m316.802 293.216c-26.338 46.925-43.169 86.869-43.169 108.049 0 61.059 49.676 110.735 110.736 110.735l23.829-64.51-23.829-138.605c-36.341-.599-72.265-5.91-67.567-15.669z" fill="#c7f2fe"/><path d="m454.252 295.803c4.468 9.423-32.923 13.689-69.883 13.081v203.116c61.059 0 110.735-49.676 110.735-110.735 0-21.165-15.21-59.282-40.852-105.462z" fill="#91e5fe"/></g><g><path d="m340.855 252.651c-8.65 13.894-16.719 27.5-24.052 40.566-9.476 19.685-16.711 37.906-16.711 50.747 0 46.663 37.684 84.514 84.277 84.808l20.473-83.989-20.473-92.132z" fill="#748bfc"/><path d="m454.252 295.803c-7.635-13.75-16.184-28.206-25.545-43.153h-44.339v176.121c.182.001.362.014.545.014 46.846 0 84.822-37.976 84.822-84.822.001-12.275-6.621-29.472-15.483-48.16z" fill="#5d60c9"/></g><g><path d="m334.529 240.703c0 27.482 22.358 49.84 49.84 49.84l13.438-47.188-13.438-52.491c-27.482 0-49.84 22.358-49.84 49.839z" fill="#f69"/><path d="m384.369 190.864v99.679c27.482 0 49.839-22.358 49.839-49.84 0-27.481-22.357-49.839-49.839-49.839z" fill="#f37"/></g></g></g></svg>