<svg id="Capa_1" enable-background="new 0 0 497 497" height="512" viewBox="0 0 497 497" width="512" xmlns="http://www.w3.org/2000/svg"><g><path d="m279.238 434.066-62.934-7.913v61.417c0 5.208 4.222 9.431 9.431 9.431h44.073c5.208 0 9.431-4.222 9.431-9.431v-53.504z" fill="#eac89f"/><path d="m256.352 434.066v53.504c0 5.208-4.222 9.431-9.431 9.431h22.886c5.208 0 9.431-4.222 9.431-9.431v-53.504z" fill="#d2af8c"/><g><path d="m162.551 134.12-17.96 21.49-19.95-16.67-12.89-10.77c-4.78-4-10.85-6.2-17.08-6.2-14.69 0-26.64 11.95-26.64 26.64v45.55c0 8.77 4.32 16.98 11.55 21.95l8.08 5.56 36.02 24.77-15.86 23.07-23.39-16.07-20.72-14.25c-14.83-10.2-23.68-27.03-23.68-45.03v-45.55c0-30.13 24.51-54.64 54.64-54.64 12.78 0 25.23 4.52 35.04 12.71l8.67 7.24z" fill="#7a6d79"/></g><g fill="#685e68"><path d="m109.289 106.684 44.707 37.675 8.552-10.234-32.839-27.441c-9.811-8.197-22.254-12.712-35.038-12.712-3.496 0-6.912.344-10.227.974 9.091 1.731 17.673 5.745 24.845 11.738z"/><path d="m68.03 194.159v-45.546c0-11.063 6.778-20.569 16.399-24.591-3.209-1.327-6.662-2.051-10.177-2.051-14.69 0-26.642 11.951-26.642 26.642v45.546c0 8.775 4.317 16.982 11.548 21.954l44.104 30.322-9.309 13.539 13.865 9.533 15.863-23.072-44.104-30.322c-7.23-4.971-11.547-13.178-11.547-21.954z"/></g><g><path d="m389.181 269.508-15.863-23.072 44.104-30.322c7.231-4.972 11.548-13.179 11.548-21.954v-45.546c0-14.69-11.951-26.642-26.642-26.642-6.233 0-12.3 2.201-17.084 6.198l-32.838 27.441-17.954-21.486 32.839-27.441c9.811-8.197 22.254-12.712 35.038-12.712 30.129 0 54.642 24.512 54.642 54.642v45.546c0 17.998-8.854 34.83-23.685 45.026z" fill="#7a6d79"/></g><g fill="#685e68"><path d="m402.328 93.972c-3.438 0-6.849.337-10.193.974 25.256 4.803 44.415 27.034 44.415 53.668v45.546c0 17.998-8.854 34.83-23.685 45.026l-30.238 20.789 6.554 9.533 44.104-30.322c14.831-10.196 23.685-27.028 23.685-45.026v-45.546c-.001-30.131-24.513-54.642-54.642-54.642z"/><path d="m392.151 124.022c-3.155-1.319-6.615-2.051-10.243-2.051-6.233 0-12.3 2.201-17.084 6.198l-20.815 17.394 8.396 10.048 32.838-27.441c2.087-1.743 4.426-3.121 6.908-4.148z"/></g><path d="m438.551 389.86v23.68c0 11.34-9.19 20.53-20.53 20.53h-340.5c-11.34 0-20.53-9.19-20.53-20.53v-23.68c0-11.34 9.19-20.53 20.53-20.53h340.5c11.34 0 20.53 9.19 20.53 20.53z" fill="#f4dbb3"/><path d="m87.661 221.67 36.02 24.77-15.86 23.07-23.39-16.07c.15-10.71 1.23-21.34 3.23-31.77z" fill="#685e68"/><path d="m162.551 134.12-17.96 21.49-19.95-16.67 7.12-11.55c2.64-4.29 4.86-8.8 6.62-13.47z" fill="#685e68"/><path d="m418.022 369.33h-22.886c11.337 0 20.528 9.191 20.528 20.528v23.68c0 11.337-9.191 20.528-20.528 20.528h22.886c11.337 0 20.528-9.191 20.528-20.528v-23.68c0-11.337-9.191-20.528-20.528-20.528z" fill="#eac89f"/><path d="m329.2 86.095-6.781-28.35h-147.596l-8.481 28.35c0 14.581-4.048 28.875-11.694 41.29l-20.252 32.886c-17.721 28.775-27.104 61.906-27.104 95.7 0 14.197 1.657 28.346 4.936 42.159l6.276 26.433c6.23 26.241 29.669 44.766 56.639 44.766h145.257c26.97 0 50.408-18.525 56.639-44.766l6.276-26.433c3.28-13.813 4.936-27.962 4.936-42.159 0-33.794-9.383-66.925-27.104-95.7l-20.252-32.886c-7.647-12.415-11.695-26.709-11.695-41.29z" fill="#918291"/><path d="m361.146 160.272-20.252-32.886c-7.646-12.415-11.694-26.709-11.694-41.29l-6.781-28.35h-16.104v28.35c0 14.581 4.048 28.875 11.694 41.29l20.252 32.886c17.721 28.775 27.104 61.906 27.104 95.7 0 14.197-1.657 28.346-4.936 42.159l-6.276 26.433c-6.23 26.24-29.669 44.766-56.638 44.766h22.886c26.97 0 50.408-18.525 56.638-44.766l6.276-26.433c3.28-13.813 4.936-27.962 4.936-42.159-.001-33.794-9.384-66.925-27.105-95.7z" fill="#7a6d79"/><path d="m329.2 57.746-83.478 8.063-79.381-8.063-15.574-15.442c-6.58-6.524-8.962-16.177-6.173-25.013 3.249-10.293 12.797-17.291 23.59-17.291h159.173c10.793 0 20.341 6.998 23.59 17.291 2.789 8.836.407 18.489-6.173 25.013z" fill="#7a6d79"/><path d="m350.947 17.291c-3.249-10.293-12.796-17.291-23.59-17.291h-22.886c10.793 0 20.341 6.998 23.59 17.291 2.789 8.836.407 18.489-6.173 25.013l-15.574 15.442h22.886l15.574-15.442c6.58-6.524 8.962-16.178 6.173-25.013z" fill="#685e68"/><path d="m166.341 57.75h162.86v25.14h-162.86z" fill="#f4dbb3"/><path d="m306.315 57.75h22.886v25.14h-22.886z" fill="#eac89f"/><g><path d="m251.235 328.668c-12.988 0-24.849-.569-34.943-1.338-4.13-.314-7.223-3.917-6.909-8.048.314-4.13 3.912-7.236 8.048-6.909 27.779 2.114 69.432 2.688 110.102-6.589 4.041-.923 8.059 1.606 8.98 5.645s-1.606 8.06-5.644 8.98c-27.611 6.297-55.551 8.259-79.634 8.259z" fill="#685e68"/></g><g><path d="m182.089 323.395c-.379 0-.762-.028-1.148-.088-10.084-1.55-15.96-2.83-16.205-2.884-4.046-.887-6.607-4.887-5.72-8.933.887-4.045 4.883-6.604 8.93-5.72.056.012 5.709 1.24 15.273 2.71 4.094.629 6.903 4.458 6.274 8.552-.57 3.708-3.765 6.363-7.404 6.363z" fill="#685e68"/></g><g><path d="m249.332 222.853c-21.713 0-38.321-3.56-39.358-3.787-4.046-.888-6.607-4.887-5.719-8.933.887-4.045 4.883-6.605 8.927-5.721.354.078 35.772 7.62 69.112.015 4.041-.919 8.059 1.605 8.98 5.645.921 4.038-1.605 8.059-5.644 8.98-12.5 2.85-25.081 3.801-36.298 3.801z" fill="#685e68"/></g><g><path d="m438.551 394.2v15h-313.1c-4.14 0-7.5-3.36-7.5-7.5s3.36-7.5 7.5-7.5z" fill="#eac89f"/></g><path d="m415.661 394.2h22.89v15h-22.89z" fill="#d2af8c"/><g><path d="m97.791 401.7c0 4.14-3.35 7.5-7.5 7.5h-33.3v-15h33.3c4.15 0 7.5 3.36 7.5 7.5z" fill="#eac89f"/></g></g></svg>